<?xml version="1.0" standalone="no"?><!DOCTYPE svg PUBLIC "-//W3C//DTD SVG 1.1//EN" "http://www.w3.org/Graphics/SVG/1.1/DTD/svg11.dtd"><svg t="1521645846870" class="icon" style="" viewBox="0 0 1024 1024" version="1.1" xmlns="http://www.w3.org/2000/svg" p-id="57207" xmlns:xlink="http://www.w3.org/1999/xlink" width="200" height="200"><defs><style type="text/css"></style></defs><path d="M192 575.7952a416.1536 320 90 1 0 640 0 416.1536 320 90 1 0-640 0Z" fill="#ffffff" p-id="57208" data-spm-anchor-id="a313x.7781069.0.i239" class="selected"></path><path d="M576 623.8208c-44.2368 0-80.0768 35.84-80.0768 79.9744s35.84 80.0768 79.9744 80.0768 80.0768-35.84 80.0768-79.9744c0-44.2368-35.7376-80.0768-79.9744-80.0768zM384 463.7696c-26.5216 0-48.0256 21.504-48.0256 48.0256s21.504 48.0256 48.0256 48.0256 48.0256-21.504 48.0256-48.0256-21.504-48.0256-48.0256-48.0256z" fill="#ffffff" p-id="57209" data-spm-anchor-id="a313x.7781069.0.i241" class="selected"></path><path d="M463.9744 287.744c8.8064 0 15.9744-7.168 15.9744-15.9744s-7.168-15.9744-15.9744-15.9744-15.9744 7.168-15.9744 15.9744 7.168 15.9744 15.9744 15.9744z m240.0256 240.0256h-79.9744c-8.8064 0-15.9744 7.168-15.9744 15.9744s7.168 15.9744 15.9744 15.9744h79.9744c8.8064 0 15.9744-7.168 15.9744-15.9744s-7.168-15.9744-15.9744-15.9744zM335.9744 671.8464c8.8064 0 15.9744-7.168 15.9744-15.9744s-7.168-15.9744-15.9744-15.9744h-48.0256c-8.8064 0-15.9744 7.168-15.9744 15.9744s7.168 15.9744 15.9744 15.9744h48.0256z m15.9744-352.1536h-79.9744c-8.8064 0-15.9744 7.168-15.9744 15.9744s7.168 15.9744 15.9744 15.9744h79.9744c8.8064 0 15.9744-7.168 15.9744-15.9744s-7.0656-15.9744-15.9744-15.9744z m256 352.1536h-31.9488c-8.8064 0-15.9744 7.168-15.9744 15.9744s7.168 15.9744 15.9744 15.9744h31.9488c8.8064 0 15.9744-7.168 15.9744-15.9744s-7.0656-15.9744-15.9744-15.9744z m-79.9744 80.0768c0-8.8064-7.168-15.9744-15.9744-15.9744h-64c-8.8064 0-15.9744 7.168-15.9744 15.9744s7.168 15.9744 15.9744 15.9744H512c8.8064 0 15.9744-7.168 15.9744-15.9744z m15.9744 112.0256h-15.9744c-8.8064 0-15.9744 7.168-15.9744 15.9744s7.168 15.9744 15.9744 15.9744h15.9744c8.8064 0 15.9744-7.168 15.9744-15.9744s-7.0656-15.9744-15.9744-15.9744z m-192-32.0512h-79.9744c-8.8064 0-15.9744 7.168-15.9744 15.9744s7.168 15.9744 15.9744 15.9744h79.9744c8.8064 0 15.9744-7.168 15.9744-15.9744s-7.0656-15.9744-15.9744-15.9744z m272.0768-512.2048h31.9488c8.8064 0 15.9744-7.168 15.9744-15.9744s-7.168-15.9744-15.9744-15.9744h-31.9488c-8.8064 0-15.9744 7.168-15.9744 15.9744s7.0656 15.9744 15.9744 15.9744z" fill="#ffffff" p-id="57210" data-spm-anchor-id="a313x.7781069.0.i240" class="selected"></path><path d="M576 416.3584c17.6128 0 31.9488-14.336 31.9488-31.9488s-14.336-31.9488-31.9488-31.9488-31.9488 14.336-31.9488 31.9488 14.2336 31.9488 31.9488 31.9488zM384 448.3072c-35.328 0-63.8976 28.672-63.8976 64s28.672 63.8976 64 63.8976 63.8976-28.672 63.8976-64c0-35.2256-28.672-63.8976-64-63.8976z m0 95.4368c-17.6128 0-31.9488-14.336-31.9488-31.9488s14.336-31.9488 31.9488-31.9488 31.9488 14.336 31.9488 31.9488S401.7152 543.744 384 543.744z m192 64.512c-52.9408 0-95.9488 43.008-95.8464 96.0512 0 52.9408 43.008 95.9488 95.9488 95.8464 52.9408 0 95.9488-43.008 95.9488-95.9488-0.1024-53.0432-43.008-95.9488-96.0512-95.9488z m0 159.232c-35.328 0-63.8976-28.672-63.8976-64s28.672-63.8976 64-63.8976 63.8976 28.672 63.8976 63.8976c0 35.328-28.672 64-64 64z m416.0512-223.232H863.1296c-2.2528-41.2672-9.1136-82.1248-20.48-121.856l101.0688-58.2656c15.36-8.704 20.7872-28.16 12.0832-43.6224-8.704-15.36-28.16-20.7872-43.6224-12.0832-0.2048 0.1024-0.4096 0.2048-0.512 0.3072l-90.9312 52.4288c-31.9488-73.9328-79.7696-135.168-137.728-176.2304 19.8656-47.3088 67.3792-118.6816 174.592-121.0368 17.3056 3.4816 34.2016-7.68 37.7856-24.9856S887.7056 4.7104 870.4 1.2288c-2.1504-0.4096-4.3008-0.6144-6.4512-0.6144h-1.024V0C731.4432 0 659.5584 81.2032 626.8928 152.8832c-73.4208-32.6656-157.3888-32.5632-230.7072 0.4096C363.7248 81.5104 291.84 0 160.0512 0v0.6144c-17.6128 0-31.9488 14.336-31.9488 32.0512 0 17.6128 14.336 31.9488 32.0512 31.9488 2.048 0 4.1984-0.2048 6.2464-0.6144C273.2032 66.56 320.512 138.24 340.0704 185.4464c-57.5488 41.0624-105.1648 102.0928-136.9088 175.7184l-90.9312-52.4288c-15.2576-9.0112-34.816-3.8912-43.8272 11.264-9.0112 15.2576-3.8912 34.816 11.264 43.8272 0.2048 0.1024 0.4096 0.2048 0.512 0.3072l101.0688 58.2656c-11.3664 39.7312-18.2272 80.5888-20.48 121.856H31.9488C14.336 544.256 0 558.592 0 576.2048s14.336 31.9488 31.9488 31.9488h128.9216c2.2528 41.2672 9.1136 82.1248 20.48 121.856l-101.0688 58.368c-15.5648 8.2944-21.504 27.648-13.2096 43.3152 8.2944 15.5648 27.648 21.504 43.3152 13.2096 0.6144-0.3072 1.3312-0.7168 1.9456-1.1264l90.9312-52.4288C263.0656 929.9968 378.88 1024 512 1024s248.9344-94.0032 308.736-232.6528l90.9312 52.4288c15.2576 9.0112 34.816 3.9936 43.8272-11.264s3.9936-34.816-11.264-43.8272c-0.2048-0.1024-0.4096-0.2048-0.512-0.3072L842.6496 730.112c11.3664-39.7312 18.2272-80.5888 20.48-121.856h128.8192c17.7152 0 31.9488-14.336 31.9488-31.9488s-14.2336-32.0512-31.8464-32.0512zM512 960c-159.0272 0-287.9488-171.8272-287.9488-383.7952S352.9728 192.4096 512 192.4096s287.9488 171.8272 287.9488 383.7952S671.0272 960 512 960z" fill="#5F4E56" p-id="57211"></path></svg>