<?xml version="1.0" standalone="no"?><!DOCTYPE svg PUBLIC "-//W3C//DTD SVG 1.1//EN" "http://www.w3.org/Graphics/SVG/1.1/DTD/svg11.dtd"><svg t="1521639979916" class="icon" style="" viewBox="0 0 1024 1024" version="1.1" xmlns="http://www.w3.org/2000/svg" p-id="24822" xmlns:xlink="http://www.w3.org/1999/xlink" width="200" height="200"><defs><style type="text/css"></style></defs><path d="M938.64064 276.55936H84.08064c-14.4512 0-26.16064 11.70944-26.16064 26.16064v558.07872c0 14.4512 11.70944 26.16064 26.16064 26.16064h854.56c14.4512 0 26.15936-11.70944 26.15936-26.16064V302.72c-0.00128-14.4512-11.70816-26.16064-26.15936-26.16064" fill="#FFFFFF" p-id="24823"></path><path d="M720.64 363.76064h156.95872v436H720.64z" fill="#85AB70" p-id="24824"></path><path d="M528.8 363.76064H685.76v436H528.8z" fill="#F7D54A" p-id="24825"></path><path d="M336.96 363.76064h156.96v436H336.96z" fill="#86AEDD" p-id="24826"></path><path d="M145.12 363.76064H302.08v436H145.12z" fill="#EE6A56" p-id="24827"></path><path d="M92.8 852.07936h837.12V311.43936h-837.12v540.64z m819.68-17.43872H110.24V328.88064h802.24v505.76z" fill="" p-id="24828"></path><path d="M145.12 625.35936H162.56v-17.43872h-17.44v17.43872z m0-69.76H162.56v-17.43872h-17.44v17.43872zM162.56 607.92064h17.44v-17.44H162.56v17.44z m0-34.88h17.44v-17.44128H162.56v17.44128z m-17.44 17.44H162.56v-17.44h-17.44v17.44zM162.56 538.16064h17.44v-17.44H162.56v17.44z m-17.44-87.2H162.56v-17.44h-17.44v17.44z m0 34.88H162.56v-17.44h-17.44v17.44z m0-69.76128H162.56v-17.44h-17.44v17.44zM162.56 468.40064h17.44v-17.44H162.56v17.44z m0-34.88h17.44v-17.44H162.56v17.44z m0-34.88h17.44v-17.44H162.56v17.44z m17.44-17.44h17.44v-17.44h-17.44v17.44z m-34.88 139.52H162.56v-17.44h-17.44v17.44z m0-139.52H162.56v-17.44h-17.44v17.44z m52.32 366.24h-17.44v17.44h17.44v-17.44z m0-139.52h-17.44v17.43872h17.44v-17.43872z m0-34.88h-17.44v17.44h17.44v-17.44z m0 69.76h-17.44v17.44h17.44v-17.44z m0 34.88h-17.44v17.43872h17.44v-17.43872z m0 34.87872h-17.44v17.44128h17.44v-17.44128z m0-209.27872h-17.44v17.44h17.44v-17.44z m-34.88 139.52h17.44v-17.44128H162.56v17.44128z m34.88-244.16h-17.44v17.44h17.44v-17.44z m0 139.52h-17.44v17.43872h17.44v-17.43872z m0-69.76h-17.44v17.44h17.44v-17.44zM162.56 503.28064h17.44v-17.44H162.56v17.44z m34.88-69.76h-17.44v17.44h17.44v-17.44zM162.56 712.55936h17.44v-17.44H162.56v17.44z m-17.44 17.44128H162.56v-17.44128h-17.44v17.44128z m0-34.88128H162.56v-17.43872h-17.44v17.43872zM162.56 677.68064h17.44v-17.44H162.56v17.44z m-17.44-17.44H162.56v-17.44h-17.44v17.44z m0 139.52H162.56v-17.44128h-17.44v17.44128z m52.32-17.44128h-17.44v17.44128h17.44v-17.44128zM162.56 747.44064h17.44v-17.44H162.56v17.44z m0 34.87872h17.44v-17.43872H162.56v17.43872z m-17.44-17.43872H162.56v-17.44h-17.44v17.44z m383.68-209.28128h17.44v-17.43872h-17.44v17.43872z m17.44-17.43872h17.44v-17.44H546.24v17.44z m0 34.88h17.44v-17.44128H546.24v17.44128z m-17.44 17.44h17.44v-17.44h-17.44v17.44z m0-69.76h17.44v-17.44h-17.44v17.44z m17.44 87.2h17.44v-17.44H546.24v17.44z m0 104.63872h17.44v-17.44H546.24v17.44z m0-69.75872h17.44v-17.44128H546.24v17.44128z m0-139.52h17.44v-17.44H546.24v17.44z m-17.44 122.07872h17.44v-17.43872h-17.44v17.43872z m17.44 52.32128h17.44v-17.44H546.24v17.44z m0-279.04h17.44v-17.44H546.24v17.44z m-17.44-17.44h17.44v-17.44h-17.44v17.44z m52.31872-17.44h-17.43872v17.44h17.43872v-17.44z m-52.31872 52.31872h17.44v-17.44h-17.44v17.44z m17.44 17.44128h17.44v-17.44H546.24v17.44z m-17.44 52.32h17.44v-17.44h-17.44v17.44z m0 313.92h17.44v-17.44128h-17.44v17.44128z m0-348.8h17.44v-17.44h-17.44v17.44z m17.44 17.44h17.44v-17.44H546.24v17.44z m34.87872-34.88h-17.43872v17.44h17.43872v-17.44z m0-34.88h-17.43872v17.44h17.43872v-17.44z m0 69.76h-17.43872v17.44h17.43872v-17.44z m0 34.88h-17.43872v17.44h17.43872v-17.44z m-52.31872 191.83872h17.44v-17.43872h-17.44v17.43872z m0-34.87872h17.44v-17.44h-17.44v17.44z m0 104.64h17.44v-17.44h-17.44v17.44z m0-34.88h17.44v-17.44128h-17.44v17.44128z m52.31872-191.84h-17.43872v17.43872h17.43872v-17.43872z m0 69.76h-17.43872v17.43872h17.43872v-17.43872z m0 139.52h-17.43872v17.44h17.43872v-17.44z m0 34.87872h-17.43872v17.44128h17.43872v-17.44128z m0-209.27872h-17.43872v17.44h17.43872v-17.44z m0 139.51872h-17.43872v17.44128h17.43872v-17.44128z m-34.87872 69.76h17.44v-17.43872H546.24v17.43872z m34.87872-104.63872h-17.43872v17.43872h17.43872v-17.43872z m-34.87872 69.76h17.44v-17.44H546.24v17.44z m34.87872-104.64h-17.43872v17.44h17.43872v-17.44z" fill="" p-id="24829"></path><path d="M929.92 241.68064H598.1248c-1.43744-14.4512-6.45376-27.81568-14.0672-39.31648l66.62144-66.62144c2.86208 0.76672 5.8176 1.2992 8.92032 1.2992 19.264 0 34.88128-15.61856 34.88128-34.88s-15.61728-34.88-34.88128-34.88c-19.26144 0-34.87872 15.61856-34.87872 34.88 0 3.104 0.53248 6.06336 1.29792 8.92032l-66.62144 66.62272c-13.78304-9.12896-30.2656-14.50368-48.03584-14.50368-17.7728 0-34.25408 5.37344-48.03584 14.50368l-66.61376-66.62272c0.75904-2.85696 1.29024-5.81632 1.29024-8.92032 0-19.26144-15.61856-34.88-34.88-34.88-19.26272 0-34.88 15.61856-34.88 34.88s15.61728 34.88 34.88 34.88c3.104 0 6.05824-0.53248 8.92032-1.2992l66.62144 66.62144c-7.61344 11.5008-12.62848 24.86656-14.0672 39.31648H92.8c-38.52544 0-69.76 31.23584-69.76 69.76v540.64c0 38.52672 31.23456 69.76 69.76 69.76h34.88c0 19.264 15.61728 34.88128 34.88 34.88128s34.88-15.61728 34.88-34.88128h627.84c0 19.264 15.61856 34.88128 34.88 34.88128 19.26272 0 34.88-15.61728 34.88-34.88128h34.88c38.52416 0 69.76-31.23328 69.76-69.76V311.43936c0-38.52416-31.23584-69.75872-69.76-69.75872m34.87872 610.39872c0 19.264-15.616 34.88128-34.87872 34.88128h-837.12c-19.26144 0-34.88-15.61728-34.88-34.88128V311.43936c0-19.26144 15.61856-34.88 34.88-34.88h837.12c19.26272 0 34.87872 15.61856 34.87872 34.88v540.64z" fill="" p-id="24830"></path></svg>